<svg width="1em" height="1em" viewBox="0 0 24 24" fill="none" xmlns="http://www.w3.org/2000/svg" class="product-ui-task-attribute-pill_prefixIcon__8lJjH"><path fill-rule="evenodd" clip-rule="evenodd" d="M6 8a.75.75 0 0 1 .75-.75h10.5a.75.75 0 0 1 0 1.5H6.75A.75.75 0 0 1 6 8Z" fill="currentColor"/><path fill-rule="evenodd" clip-rule="evenodd" d="M3 6a3 3 0 0 1 3-3h12a3 3 0 0 1 3 3v12a3 3 0 0 1-3 3H6a3 3 0 0 1-3-3V6Zm3-1.5A1.5 1.5 0 0 0 4.5 6v12A1.5 1.5 0 0 0 6 19.5h12a1.5 1.5 0 0 0 1.5-1.5V6A1.5 1.5 0 0 0 18 4.5H6Z" fill="currentColor"/><path d="M17.25 16.125a1.125 1.125 0 1 1-2.25 0 1.125 1.125 0 0 1 2.25 0Z" fill="currentColor"/></svg>