<svg width="1em" height="1em" viewBox="0 0 24 24" fill="none" xmlns="http://www.w3.org/2000/svg" class="product-ui-task-attribute-pill_prefixIcon__8lJjH"><path fill-rule="evenodd" clip-rule="evenodd" d="M3 4.5a.75.75 0 0 1 .415-.67C4.537 3.267 6.144 3 8.25 3c1.352 0 2.228.202 3.987.789 1.616.538 2.365.711 3.513.711 1.894 0 3.287-.232 4.165-.67A.75.75 0 0 1 21 4.5v9.75a.75.75 0 0 1-.415.671c-1.122.562-2.729.83-4.835.83-1.352 0-2.228-.203-3.987-.79-1.616-.538-2.365-.71-3.513-.71-1.619 0-2.872.169-3.75.492v5.507a.75.75 0 1 1-1.5 0V4.5Zm1.5 8.668V4.993C5.378 4.67 6.631 4.5 8.25 4.5c1.148 0 1.897.173 3.513.712 1.759.586 2.635.788 3.987.788 1.502 0 2.75-.136 3.75-.418v8.175c-.878.324-2.131.493-3.75.493-1.148 0-1.897-.173-3.513-.711-1.759-.587-2.635-.789-3.987-.789-1.502 0-2.75.136-3.75.418Z" fill="currentColor"/></svg>