<svg width="1em" height="1em" viewBox="0 0 24 24" fill="none" xmlns="http://www.w3.org/2000/svg" class="product-ui-view_icon__6BxqD"><g clip-path="url(#avatar-personal_svg__a)"><path d="M0 6a6 6 0 0 1 6-6h12a6 6 0 0 1 6 6v12a6 6 0 0 1-6 6H6a6 6 0 0 1-6-6V6Z" fill="#FBD5D0"/><mask id="avatar-personal_svg__b" style="mask-type:alpha" maskUnits="userSpaceOnUse" x="0" y="0" width="24" height="24"><path d="M0 6a6 6 0 0 1 6-6h12a6 6 0 0 1 6 6v12a6 6 0 0 1-6 6H6a6 6 0 0 1-6-6V6Z" fill="#FBD5D0"/></mask><g mask="url(#avatar-personal_svg__b)" fill="#F8EBEB"><path d="M-3.091-1.94C-3.221-1.545.637-.425 3.468.365l24.897 6.952c1.56.436 4.647 1.405 5.11.955.464-.45-1.968-1.3-3.239-1.655-1.27-.355-2.973-.616-4.62-1.14-1.645-.524-3.446-1.949-7.33-2.99-3.883-1.042-5.365-.748-7.472-1.25C8.707.733 4.355-.65 1.55-1.33c-3.344-.81-4.53-.948-4.64-.61Z"/><path d="M-3.726-.012c.438-1.331 4.353-.383 7.184.408l24.896 6.952c1.56.435 4.79.974 4.486 2.851-.303 1.877-2.962 1.716-4.233 1.361-1.271-.354-2.69-1.477-4.421-1.744-1.73-.264-4.753 2.015-8.58.802s-4.37-3.764-6.364-4.611C7.248 5.159 2.674 4.45.005 3.355c-3.18-1.306-4.111-2.22-3.731-3.367ZM29.015 28.494c.22-.494-4.649-2.452-8.225-3.848l-31.453-12.279c-1.97-.77-5.856-2.43-6.517-1.907-.661.524 2.388 1.947 3.994 2.574 1.606.627 3.784 1.187 5.856 2.083 2.07.895 4.225 2.982 9.137 4.841 4.912 1.86 6.876 1.67 9.549 2.598 2.673.928 8.149 3.292 11.708 4.542 4.24 1.489 5.764 1.823 5.95 1.396Z"/><path d="M30.092 26.071c-.744 1.674-5.708-.069-9.284-1.465l-31.453-12.278c-1.97-.77-6.097-1.89-5.458-4.29.638-2.4 4.073-1.845 5.679-1.219 1.606.627 3.303 2.27 5.518 2.843 2.215.57 6.44-2 11.256.076 4.816 2.075 5.19 5.461 7.67 6.822 2.481 1.362 8.334 2.878 11.66 4.65 3.964 2.112 5.055 3.42 4.412 4.861Z"/></g><path d="M8.375 18V6.727h4.227c.866 0 1.592.162 2.18.485.59.323 1.036.767 1.337 1.332.305.561.457 1.2.457 1.915 0 .723-.152 1.365-.457 1.927a3.265 3.265 0 0 1-1.348 1.326c-.595.32-1.327.48-2.197.48H9.773v-1.68h2.526c.506 0 .921-.088 1.244-.264.323-.176.561-.418.716-.726.157-.309.236-.663.236-1.063 0-.4-.079-.752-.236-1.057a1.608 1.608 0 0 0-.722-.71c-.322-.172-.739-.258-1.249-.258h-1.871V18H8.375Z" fill="#D64638"/></g><defs><clipPath id="avatar-personal_svg__a"><path fill="currentColor" d="M0 0h24v24H0z"/></clipPath></defs></svg>