<svg xmlns="http://www.w3.org/2000/svg" fill="currentColor" viewBox="0 0 103 57" aria-label="Amazon"><g clip-path="url(#Amazon_svg__a)"><path d="M63.414 41.166c-5.897 4.347-14.445 6.666-21.805 6.666-10.319 0-19.609-3.817-26.637-10.165-.552-.5-.057-1.18.605-.79 7.585 4.412 16.963 7.067 26.65 7.067 6.534 0 13.722-1.352 20.33-4.157.998-.424 1.833.654.857 1.379Z"/><path d="M65.866 38.36c-.75-.962-4.983-.454-6.882-.229-.579.07-.667-.433-.146-.795 3.37-2.372 8.901-1.688 9.546-.892.645.8-.168 6.343-3.335 8.99-.486.406-.95.19-.733-.35.71-1.776 2.305-5.756 1.55-6.723Zm-6.75-17.77v-2.307c0-.349.265-.583.583-.583h10.324c.331 0 .597.239.597.583v1.975c-.005.331-.283.764-.778 1.449l-5.35 7.638c1.988-.049 4.087.247 5.889 1.263.406.23.517.566.548.897v2.46c0 .336-.371.73-.76.526-3.176-1.665-7.395-1.846-10.907.018-.358.194-.733-.195-.733-.53v-2.337c0-.376.004-1.016.38-1.586l6.197-8.888h-5.393c-.332 0-.597-.234-.597-.579ZM21.457 34.977h-3.14a.593.593 0 0 1-.562-.534v-16.12a.59.59 0 0 1 .606-.579h2.928a.592.592 0 0 1 .57.54v2.107h.058c.764-2.037 2.2-2.987 4.134-2.987 1.966 0 3.194.95 4.078 2.986.76-2.036 2.487-2.986 4.338-2.986 1.316 0 2.756.544 3.635 1.763.994 1.356.791 3.326.791 5.053l-.004 10.174c0 .322-.27.583-.606.583h-3.136a.597.597 0 0 1-.565-.583v-8.543c0-.68.061-2.377-.089-3.022-.234-1.082-.936-1.387-1.846-1.387-.76 0-1.555.508-1.878 1.32-.322.814-.291 2.174-.291 3.088v8.544c0 .322-.27.583-.606.583h-3.136a.594.594 0 0 1-.565-.583l-.005-8.543c0-1.798.296-4.444-1.935-4.444-2.257 0-2.169 2.58-2.169 4.444v8.543a.593.593 0 0 1-.605.583Zm58.05-17.573c4.66 0 7.183 4.003 7.183 9.091 0 4.917-2.788 8.818-7.183 8.818-4.577 0-7.068-4.002-7.068-8.99 0-5.018 2.522-8.919 7.068-8.919Zm.026 3.291c-2.314 0-2.46 3.154-2.46 5.12 0 1.97-.031 6.176 2.434 6.176 2.434 0 2.549-3.393 2.549-5.46 0-1.36-.058-2.986-.468-4.276-.354-1.122-1.056-1.56-2.054-1.56ZM9.711 27.277v-.68c-2.27 0-4.67.486-4.67 3.163 0 1.356.703 2.275 1.91 2.275.883 0 1.673-.543 2.173-1.427.618-1.087.587-2.107.587-3.33Zm3.168 7.656a.656.656 0 0 1-.743.075c-1.042-.866-1.228-1.268-1.802-2.094-1.723 1.758-2.942 2.284-5.177 2.284-2.642 0-4.7-1.63-4.7-4.895 0-2.549 1.382-4.285 3.348-5.133 1.705-.75 4.086-.883 5.906-1.091v-.407c0-.746.058-1.63-.38-2.274-.384-.58-1.117-.818-1.762-.818-1.197 0-2.266.614-2.527 1.887-.053.282-.26.56-.543.574l-3.049-.327c-.256-.057-.538-.265-.468-.658.703-3.693 4.038-4.806 7.024-4.806 1.528 0 3.525.406 4.731 1.563 1.529 1.427 1.383 3.331 1.383 5.403v4.894c0 1.471.61 2.116 1.184 2.912.203.282.247.623-.01.834a133.4 133.4 0 0 0-2.407 2.086l-.008-.01Zm79.854.044h-3.127a.597.597 0 0 1-.566-.583l-.004-16.124a.594.594 0 0 1 .605-.526h2.911c.274.014.5.2.561.451v2.465h.057c.88-2.204 2.112-3.256 4.281-3.256 1.41 0 2.783.508 3.666 1.9.822 1.29.822 3.459.822 5.018V34.47c-.035.283-.296.508-.605.508h-3.15c-.287-.022-.525-.234-.556-.508v-8.755c0-1.763.203-4.343-1.966-4.343-.764 0-1.467.513-1.816 1.29-.442.985-.499 1.966-.499 3.053v8.68a.604.604 0 0 1-.614.583Zm-42.307-7.7v-.68c-2.27 0-4.67.486-4.67 3.163 0 1.356.703 2.275 1.91 2.275.883 0 1.673-.543 2.173-1.427.618-1.087.587-2.107.587-3.33Zm3.167 7.656a.656.656 0 0 1-.742.075c-1.042-.866-1.228-1.268-1.802-2.094-1.723 1.758-2.942 2.284-5.177 2.284-2.642 0-4.7-1.63-4.7-4.895 0-2.549 1.382-4.285 3.348-5.133 1.705-.75 4.086-.883 5.906-1.091v-.407c0-.746.057-1.63-.38-2.274-.384-.58-1.117-.818-1.763-.818-1.197 0-2.266.614-2.526 1.887-.053.282-.26.56-.544.574l-3.048-.327c-.256-.057-.539-.265-.468-.658.702-3.693 4.038-4.806 7.024-4.806 1.528 0 3.525.406 4.731 1.563 1.528 1.427 1.383 3.331 1.383 5.403v4.894c0 1.471.61 2.117 1.184 2.912.203.282.247.623-.01.834a133.4 133.4 0 0 0-2.407 2.086l-.009-.01Z"/></g><defs><clipPath id="Amazon_svg__a"><path d="M0 0h102v39H0z" transform="translate(.198 8.52)"/></clipPath></defs></svg>