<svg width="1em" height="1em" viewBox="0 0 16 17" fill="none" xmlns="http://www.w3.org/2000/svg" class="fcno40qhmCgDkMq5y3Tk"><path fill-rule="evenodd" clip-rule="evenodd" d="M1.585 3.545c.915-.608 2.12-.96 3.415-.96 1.107 0 2.149.257 3 .712.851-.455 1.893-.713 3-.713 1.295 0 2.5.353 3.415.961a.75.75 0 0 1 .335.625v8.666a.75.75 0 0 1-1.165.625c-.642-.426-1.55-.71-2.585-.71-1.034 0-1.943.284-2.585.71a.75.75 0 0 1-.83 0c-.642-.426-1.551-.71-2.585-.71s-1.943.284-2.585.71a.75.75 0 0 1-1.165-.625V4.17a.75.75 0 0 1 .335-.625ZM7.25 4.598c-.607-.315-1.385-.514-2.25-.514s-1.643.199-2.25.514v7.034a6.666 6.666 0 0 1 2.25-.38c.8 0 1.566.134 2.25.38V4.598Zm1.5 7.034a6.666 6.666 0 0 1 2.25-.38c.8 0 1.566.134 2.25.38V4.598c-.607-.315-1.384-.514-2.25-.514-.865 0-1.643.199-2.25.514v7.034Z" fill="currentColor"/></svg>