<svg xmlns="http://www.w3.org/2000/svg" fill="currentColor" viewBox="0 0 64 57" aria-label="Salesforce"><path d="M41.087 26.676c0 .624-.116 1.115-.346 1.463-.226.344-.569.511-1.047.511-.48 0-.82-.166-1.043-.511-.226-.347-.34-.84-.34-1.463 0-.624.114-1.114.34-1.458.222-.34.564-.506 1.043-.506.478 0 .82.166 1.048.506.229.344.345.834.345 1.458Zm11.799-.598c.051-.347.147-.635.295-.86.223-.341.563-.528 1.041-.528s.794.188 1.021.528c.15.225.216.526.242.86h-2.599ZM24 25.218c-.148.225-.242.513-.294.86h2.598c-.026-.334-.091-.635-.24-.86-.228-.34-.544-.528-1.022-.528-.479 0-.819.187-1.042.528Zm-8.17 3.245c-.142-.113-.162-.142-.21-.215-.072-.112-.109-.272-.109-.474 0-.32.106-.55.325-.706-.002.001.314-.273 1.057-.263.522.007.989.084.989.084v1.657s-.462.1-.984.13c-.741.045-1.07-.213-1.068-.212Z"/><path fill-rule="evenodd" d="M34.35 7.397c-3.122 0-5.945 1.31-7.972 3.423a12.194 12.194 0 0 0-9.708-4.8c-6.743 0-12.21 5.46-12.21 12.194 0 1.723.36 3.363 1.005 4.849A10.618 10.618 0 0 0 .22 32.245c0 5.855 4.697 10.601 10.492 10.601.74 0 1.46-.077 2.156-.225 1.592 4.32 5.74 7.399 10.607 7.399 4.674 0 8.683-2.839 10.405-6.887a9.904 9.904 0 0 0 12.98-4.077c.864.174 1.756.265 2.67.265 7.484 0 13.552-6.12 13.552-13.67S57.013 11.98 49.529 11.98c-1.951 0-3.806.416-5.481 1.165-1.928-3.435-5.549-5.749-9.698-5.749Zm3.331 14.11a3.142 3.142 0 0 0-.36-.086 2.86 2.86 0 0 0-.495-.037c-.659 0-1.178.186-1.543.553-.362.365-.608.921-.732 1.653l-.045.246h-.827s-.1-.003-.122.106l-.135.759c-.01.071.021.117.118.117h.805l-.817 4.56a5.644 5.644 0 0 1-.218.898c-.08.225-.158.395-.255.518a.678.678 0 0 1-.333.257c-.125.042-.27.062-.429.062a1.59 1.59 0 0 1-.291-.032.86.86 0 0 1-.198-.064s-.093-.036-.131.058c-.03.078-.245.668-.27.74-.026.073.01.13.056.147a2.23 2.23 0 0 0 .867.148c.335 0 .64-.048.894-.14.255-.091.477-.252.674-.468.212-.235.345-.48.473-.816.126-.331.234-.743.32-1.223l.821-4.645h1.2s.101.003.122-.107l.136-.757c.009-.073-.022-.118-.12-.118h-1.164l.002-.012.004-.023a4.81 4.81 0 0 1 .186-.787 1.07 1.07 0 0 1 .256-.388.765.765 0 0 1 .305-.19c.115-.038.247-.056.391-.056.11 0 .218.013.3.03.112.024.156.037.186.046.119.035.135 0 .158-.057l.279-.765c.028-.082-.042-.117-.068-.127Zm-28.34 7.464c-.02-.018-.05-.047-.018-.133l.254-.705c.04-.122.133-.082.17-.058l.084.053c.037.024.077.05.129.08a3.05 3.05 0 0 0 1.66.478c.561 0 .909-.297.909-.697v-.021c0-.436-.534-.6-1.153-.791h-.002l-.137-.043c-.852-.243-1.76-.593-1.76-1.67v-.021c0-1.022.823-1.735 2.003-1.735h.13c.692 0 1.362.2 1.847.495.043.027.086.077.062.146a97.47 97.47 0 0 1-.262.705c-.046.121-.17.04-.17.04a3.718 3.718 0 0 0-1.64-.419c-.499 0-.821.265-.821.625v.023c0 .42.551.6 1.19.807l.111.036c.848.268 1.752.639 1.752 1.66v.021c0 1.104-.801 1.79-2.09 1.79-.634 0-1.239-.1-1.88-.44a8.101 8.101 0 0 0-.076-.042c-.095-.053-.19-.106-.283-.174l-.003-.003-.002-.003-.005-.004Zm18.877 0c-.019-.018-.05-.047-.017-.133l.254-.705c.037-.116.147-.074.17-.058l.043.027c.05.033.098.065.17.106a3.05 3.05 0 0 0 1.66.478c.56 0 .91-.297.91-.697v-.021c0-.436-.535-.6-1.154-.79l-.14-.044c-.852-.243-1.76-.593-1.76-1.67v-.021c0-1.022.823-1.735 2.004-1.735h.129c.693 0 1.363.2 1.847.495.044.027.087.077.063.146l-.263.705c-.045.121-.17.04-.17.04a3.718 3.718 0 0 0-1.639-.419c-.5 0-.822.265-.822.625v.023c0 .42.552.6 1.19.807l.111.036c.849.268 1.752.639 1.752 1.66v.021c0 1.104-.8 1.79-2.09 1.79-.633 0-1.238-.1-1.88-.44a9.636 9.636 0 0 0-.075-.042 2.675 2.675 0 0 1-.294-.184Zm13.945-3.452a2.59 2.59 0 0 0-.49-.935 2.367 2.367 0 0 0-.826-.629 2.718 2.718 0 0 0-1.153-.23 2.72 2.72 0 0 0-1.155.23 2.38 2.38 0 0 0-.827.629 2.632 2.632 0 0 0-.49.935 4.092 4.092 0 0 0-.157 1.157c0 .412.053.802.157 1.157a2.6 2.6 0 0 0 .491.934c.22.264.498.474.826.624.33.15.718.225 1.155.225.436 0 .824-.076 1.153-.225.329-.15.607-.36.827-.624a2.59 2.59 0 0 0 .49-.934 4.09 4.09 0 0 0 .158-1.157 4.05 4.05 0 0 0-.159-1.157Zm8.703 2.899s.1-.04.137.065l.264.73c.034.09-.044.128-.044.128a4.38 4.38 0 0 1-1.524.272c-.933 0-1.649-.269-2.125-.8-.476-.527-.717-1.25-.717-2.142 0-.413.06-.803.176-1.159a2.67 2.67 0 0 1 .524-.935c.23-.263.523-.474.867-.627a2.928 2.928 0 0 1 1.2-.231c.302 0 .574.018.807.054.25.038.579.127.718.181.026.01.095.045.067.126-.068.196-.123.345-.18.502l-.038.105-.046.13c-.04.11-.126.074-.126.074a3.576 3.576 0 0 0-1.137-.163c-.533 0-.932.178-1.195.525-.264.35-.41.808-.413 1.418-.001.67.165 1.165.463 1.471.296.306.71.461 1.23.461.213 0 .411-.014.591-.042a2.41 2.41 0 0 0 .5-.143Zm5.644-3.102a2.263 2.263 0 0 0-.466-.853c-.235-.252-.464-.429-.692-.527a2.664 2.664 0 0 0-1.044-.212c-.455 0-.867.077-1.202.234a2.393 2.393 0 0 0-.84.64 2.626 2.626 0 0 0-.493.946c-.107.36-.16.75-.16 1.163 0 .42.055.812.166 1.163.11.355.288.668.528.926.239.261.547.465.916.608.366.141.811.215 1.322.214 1.053-.004 1.607-.239 1.835-.365.04-.022.08-.062.03-.175l-.237-.667c-.036-.099-.137-.062-.137-.062l-.028.01-.027.01-.017.007c-.258.098-.635.243-1.424.241-.565 0-.984-.167-1.246-.428-.27-.267-.402-.659-.425-1.212l3.644.003s.096-.001.105-.095l.003-.016a3.912 3.912 0 0 0-.11-1.553Zm-29.647-.853c.149.16.374.508.466.853a3.9 3.9 0 0 1 .111 1.553l-.002.017c-.01.093-.106.094-.106.094l-3.643-.003c.023.553.154.945.424 1.212.262.26.681.427 1.246.428.79.002 1.167-.143 1.424-.241l.034-.013.038-.014s.101-.037.138.062l.237.667c.049.113.01.153-.03.175-.229.126-.783.361-1.835.365-.511 0-.956-.073-1.323-.214a2.393 2.393 0 0 1-.916-.608 2.406 2.406 0 0 1-.528-.925 3.898 3.898 0 0 1-.166-1.164c0-.413.055-.804.16-1.163.106-.36.273-.679.494-.946.221-.267.503-.482.839-.64.335-.157.748-.234 1.203-.234.39 0 .746.085 1.044.212.227.098.456.275.691.527Zm-9.583 1.44a8.065 8.065 0 0 0-.569-.017c-.312 0-.614.04-.897.116a2.34 2.34 0 0 0-.761.353c-.221.158-.4.36-.529.6a1.77 1.77 0 0 0-.194.84c0 .323.056.603.167.832a1.5 1.5 0 0 0 .475.57c.203.148.452.256.743.321.285.066.61.099.964.099.373 0 .746-.03 1.107-.092.357-.061.796-.15.918-.178.12-.028.255-.065.255-.065.09-.022.083-.12.083-.12l-.002-3.331c0-.73-.195-1.273-.579-1.608-.382-.335-.946-.505-1.674-.505-.273 0-.712.038-.976.09 0 0-.796.155-1.123.411 0 0-.072.045-.033.145l.258.693c.032.09.12.06.12.06s.027-.012.06-.03c.7-.382 1.587-.37 1.587-.37.394 0 .697.079.9.235.2.153.3.383.3.868v.154c-.313-.045-.6-.07-.6-.07Zm29.333-2.008a.1.1 0 0 1 .055.131c-.034.1-.212.598-.274.765-.024.063-.063.106-.133.098 0 0-.21-.049-.4-.049-.133 0-.32.017-.49.069a1.118 1.118 0 0 0-.45.27c-.132.13-.24.311-.318.537-.08.228-.121.592-.121.956v2.715a.11.11 0 0 1-.11.111h-.958a.112.112 0 0 1-.11-.11v-5.435c0-.062.043-.111.104-.111h.934c.061 0 .105.049.105.11v.444c.14-.187.39-.352.616-.454.227-.102.482-.18.94-.151.238.015.548.08.61.104Zm-25.314 5.602c.061 0 .105-.049.105-.11v-7.776c0-.06-.044-.11-.105-.11h-.966c-.06 0-.104.05-.104.11v7.776c0 .061.043.11.104.11h.966Z" clip-rule="evenodd"/></svg>