<svg xmlns="http://www.w3.org/2000/svg" fill="currentColor" viewBox="0 0 100 57" aria-label="Disney"><path d="M40.792 16.699s.368-.574.696-1.024c.573-.778 1.638-1.883 2.416-2.58.245-.204.532-.45.532-.45s-.45.041-.696.082c-.614.123-1.474.696-1.924 1.065-.737.614-1.515 1.637-1.188 2.538.082.205.164.369.164.369Zm4.053 1.105a7.625 7.625 0 0 0 3.235-.983c.982-.532 2.415-1.637 2.293-2.907a1.044 1.044 0 0 0-.656-.86c-.45-.204-.655-.163-1.228 0-.41.124-.573.205-.982.41-1.147.655-2.744 2.047-3.603 3.194-.205.245-.41.573-.574.777-.122.123-.163.246-.163.287.04.123 1.228.123 1.678.082Zm-2.907 2.129c-.122.123-.245.41-.368.655-.082.123-.205.287-.287.328-.286.204-.532.245-.86-.041a1.963 1.963 0 0 1-.654-1.433c0-.246.04-.492 0-.696-.082-.328-.41-.696-.574-.983-.204-.368-.368-1.024-.41-1.474-.081-1.31.615-2.538 1.516-3.52.9-.983 2.129-1.802 3.398-2.335 1.228-.532 3.03-.86 4.38-.409.451.164 1.065.532 1.352.9.082.083.123.164.205.205.04.041.204.041.327.082.45.082 1.065.41 1.31.614.491.45.778.86.9 1.474.247 1.229-.45 2.58-1.268 3.399-1.392 1.392-2.743 2.415-4.504 3.07-.778.287-1.965.573-2.866.492-.286-.041-.573-.082-.819-.123-.123 0-.614-.123-.696-.164l-.082-.041Zm1.556 2.743c.041 0 .123.041.205.041.614.246.86.819 1.023 1.433.369 1.474.492 4.667.574 5.937.04.941.081 1.883.123 2.824.04.778.081 1.843-.082 2.58-.041.286-.246.573-.492.737-.286.204-.941.204-1.31.123-.9-.205-1.187-.778-1.31-1.679-.287-2.129-.164-6.305.04-8.065.042-.574.288-2.457.574-3.235.041-.246.287-.778.655-.696Zm-27.84 3.194s-1.351.081-2.252.204c-1.188.123-3.357.491-4.627.942-.368.123-1.146.45-1.228.86-.082.41.164.737.45 1.064.164.205 1.065 1.065 1.351 1.27 1.065.9 3.276 2.292 4.873 2.947.532.246 1.473.573 1.473.573s-.081-2.62-.04-5.158c-.041-1.351 0-2.703 0-2.703Zm24.524 1.023c.082.696-.123 2.006-.123 2.21-.04.41-.368 1.311-.41 1.434-.245.573-.49 1.023-.736 1.474-.45.778-1.474 2.047-2.088 2.58-2.293 2.005-5.855 3.11-8.926 3.48-2.088.245-4.462.204-6.673-.206a31.02 31.02 0 0 1-1.884-.409s0 .45-.04.778c0 .123-.123.532-.205.655-.164.328-.41.491-.82.573-.45.082-.94.123-1.391-.082-.696-.286-.942-.941-1.065-1.72-.082-.613-.204-1.637-.204-1.637s-.533-.246-.942-.45c-1.351-.655-2.62-1.474-3.726-2.293-.327-.246-1.637-1.351-1.924-1.597-.819-.778-1.556-1.556-2.13-2.538-.45-.778-.572-1.474-.245-2.293.45-1.146 2.088-2.006 3.235-2.497.819-.369 3.398-1.188 4.462-1.351.492-.082 1.27-.205 1.351-.246l.041-.041c.041-.041.082-1.187.041-1.597 0-.41.287-3.07.41-3.644.04-.327.286-1.473.532-1.801.164-.205.41-.205.655-.04 1.228.777 1.597 3.397 1.679 4.748.04.82.082 2.047.082 2.047s1.392-.04 2.252 0c.818.041 1.76.164 2.62.287 1.105.164 3.275.655 4.544 1.27 1.024.531 1.966 1.391 2.293 2.333.287.86.246 1.433-.205 2.21-.49.86-1.433 1.516-2.374 1.556-.287 0-1.351-.122-1.679-.368a.315.315 0 0 1-.04-.41c.04-.04.531-.286.818-.45.164-.082.287-.163.369-.286.245-.205.45-.45.45-.737-.041-.369-.41-.573-.778-.737-1.72-.655-5.077-1.229-6.756-1.351-.655-.041-1.555-.082-1.555-.082l.286 9.13s.737.164 1.351.245c.328.041 1.802.164 2.17.205 2.948.082 6.183-.164 8.885-1.474 1.187-.573 2.252-1.228 3.07-2.17 1.065-1.228 1.638-2.947 1.515-4.708-.163-1.924-1.515-4.217-2.62-5.609-2.866-3.685-7.779-6.714-12.119-8.516-4.422-1.801-8.802-2.866-13.47-3.03-1.228-.04-3.848 0-5.159.369-.204.04-.368.123-.573.164-.123.04-.368.122-.41.163l-.081.082.164.082c.123.082.737.082 1.023.164.287.04.573.205.655.41.123.204.123.327 0 .49-.286.37-1.433.287-1.924.246-.532-.082-1.146-.245-1.27-.696-.122-.532.124-1.064.37-1.555.532-.983 1.35-1.474 2.497-1.802 1.637-.45 3.685-.778 5.24-.819 3.521-.123 6.797.492 10.195 1.515 1.924.573 4.504 1.556 6.346 2.457a50.267 50.267 0 0 1 4.626 2.62c.369.246 2.539 1.842 2.907 2.129.696.573 1.638 1.392 2.293 2.088 1.31 1.27 2.907 3.234 3.685 4.79.205.369.328.737.573 1.187.082.164.45 1.024.491 1.31.041.246.164.615.164.656.041.04.205.819.205 1.105Zm15.067.655h.122c1.065.164 2.13.328 2.907.696.737.328 1.188.737 1.597 1.474.614 1.146.655 2.702.082 3.89-.41.9-1.31 1.637-2.13 2.047-.859.409-1.678.614-2.66.736-1.679.205-3.521-.163-5.036-.9-.9-.45-2.006-1.188-2.539-2.17-.409-.696-.409-1.638.082-2.334.778-1.064 2.457-1.31 3.767-1.269.983.041 2.702.328 3.644.655.245.082 1.187.45 1.35.614.124.123.206.287.124.45-.205.656-1.76.983-2.211 1.065-1.228.205-1.843-.287-3.194-.819-.327-.123-.777-.286-1.146-.327-.614-.041-1.392.122-1.474.778-.04.368.369.696.655.818.737.328 1.351.45 2.047.45 2.13.042 4.545-.327 6.305-1.555.246-.164.492-.41.492-.737 0-.04-.041-.368-.164-.41h-.041c-.041 0-.123-.122-.164-.204-.123-.164-.614-.369-.737-.41-1.187-.49-3.357-.736-4.503-.818-1.188-.082-3.03-.246-3.48-.328-.45-.082-.942-.164-1.352-.327a1.608 1.608 0 0 1-.9-1.024c-.205-.819.04-1.801.491-2.415 1.187-1.68 3.93-2.334 5.977-2.58 1.966-.245 5.2-.245 7.125.778.286.164.45.328.409.614-.123.614-.573.983-1.146 1.147-.574.163-1.761.245-2.293.286-2.334.123-5.2.082-7.41.655-.165.041-.492.123-.574.246-.368.368.655.491.86.532.082 0 .082 0 .123.041l4.995.655Zm7.328 8.803c-.941-.369-1.146-1.884-1.187-2.662-.164-2.538.532-6.018 1.351-8.393.246-.655.573-1.76 1.351-1.72.532.042.9.451 1.187.86.737 1.065 1.72 2.457 2.375 3.44.737 1.105 1.433 2.21 2.088 3.234.082.123.164.246.246.328.123.082.245.122.286 0 .041-.041-.04-1.31-.04-1.556-.041-.41-.083-.737-.123-1.106-.123-1.023-.45-2.456-.696-3.439-.287-1.064-.615-2.21-.86-3.275-.082-.328-.164-.696-.164-1.024 0-.45.287-.737.778-.573.982.328 2.252 2.416 2.62 3.153.123.245.614 1.474.737 1.842.41 1.187.655 2.334.737 3.644.123 1.27 0 3.111-.532 4.38-.205.451-.614 1.065-.942 1.393-.532.491-1.596.86-2.292.45-.778-.45-2.089-2.702-2.334-3.111-.737-1.31-2.047-3.89-2.252-4.177-.041-.082-.082-.122-.205-.163-.082-.041-.123.122-.123.245-.122.737-.204 4.258-.204 4.381-.041.573-.041 2.047-.205 2.743-.123.45-.205.86-.655 1.065-.328.245-.573.163-.942.04Zm13.102-.246a1.574 1.574 0 0 1-.369-.368s-.368-.533-.41-.697c-.04-.122-.122-.245-.163-.327-.328-.819-.287-1.597-.123-2.457.164-.818.328-.818.737-1.924.041-.04.041-.123.041-.164 0-.163-.246-1.187-.246-1.473 0-.492.369-.86 1.024-.901h.164c.245-.082.41-.573.573-.942.205-.573.491-1.392.491-1.392s-.819-.205-1.269-.368c-.491-.205-.86-.41-1.064-.86-.246-.532-.082-.819.45-.983.205-.082 1.801-.368 2.293-.45.614-.082 1.228-.164 1.801-.246.532-.082 2.907-.327 3.644-.327 1.146.04 1.883.491 2.58 1.474.368.532.614 1.146.081 1.474-.86.49-3.562.532-4.053.573h-1.883l-.574 1.842s1.966-.04 3.03-.04c.287 0 .532 0 .696.04.573.123.737.573.778 1.187.041.737-.123 1.065-.696 1.147-.287.04-3.644.082-4.094.123l-.573.081s-.246.615-.45 1.27c-.205.655-.41 1.35-.41 1.35h.327c.246 0 .492-.04.656-.081 1.023-.205 2.538-.41 3.807-.614.655-.123 1.024-.164 1.351.286.287.41.45.737.492 1.188 0 .45-.328.737-.737 1.064-1.31 1.024-3.562 2.088-5.241 2.293-.778.082-.983 0-1.638-.164-.123-.04-.614-.246-.614-.287-.082-.081-.327-.245-.41-.327Zm21.167-9.294c-.86.737-1.965 2.211-2.498 2.948-.696 1.023-1.392 2.17-2.006 3.07-.123.205-.532.942-.532.942.04.041.45.041.86-.04.9-.165 2.129-.779 2.825-1.31a5.941 5.941 0 0 0 2.047-3.194c.164-.573.205-1.843-.205-2.375-.123-.082-.327-.164-.491-.04Zm-6.879 10.604s-.286.819-.49 1.433c-.328 1.105-1.106 4.012-1.27 4.913-.246 1.351-1.024 4.872-1.065 4.954-.04.123-.081.123-.204.205-.328.163-.45.122-.819-.082-.491-.246-.9-.532-1.27-1.024-.736-.941-.572-2.743-.409-3.807.492-3.685 1.024-5.323 2.416-9.008.04-.081.04-.081 0-.122-.45-.942-.655-2.047-.655-2.99 0-2.906 1.678-5.73 3.52-8.024.124-.163 1.065-1.269 1.475-1.228.41 0 .491.491.41.9-.206 1.352-1.147 2.703-1.802 3.808-.737 1.27-.86 1.76-1.228 2.907-.041.164-.205 1.024-.205 1.147 0 .327.082.696.082.696s1.187-1.638 1.965-2.662c.41-.573.737-.941 1.064-1.31.369-.41 1.72-1.842 2.13-2.21.818-.778 1.187-1.106 2.087-1.597.696-.369 1.352-.45 2.048 0 1.105.737 1.596 2.252 1.72 3.48.163 1.474-.165 3.152-.82 4.421-.778 1.515-1.842 2.62-3.275 3.562-1.474.983-3.194 1.638-4.913 1.597-.205.041-.492.041-.492.041Z"/></svg>