<svg xmlns="http://www.w3.org/2000/svg" fill="currentColor" viewBox="0 0 99 57" aria-label="Neftlix"><path fill-rule="evenodd" d="M14.037 39.775c-.875.155-1.756.246-2.654.339-.622.064-1.251.129-1.892.217L4.743 26.197v14.738c-1.343.141-2.569.33-3.825.522l-.414.064v-27h3.94l5.412 15.314V14.521h4.181v25.254Zm11.077-15.413c.982-.02 1.943-.038 2.667-.038v4.224c-1.845 0-4.008 0-5.565.078v6.272c.725-.047 1.45-.098 2.175-.15 1.718-.122 3.44-.244 5.178-.299v4.068l-11.505.926V14.521h11.505v4.214h-7.343v5.667c.823 0 1.867-.02 2.888-.04Zm15.604-5.618h4.306l.01-.01v-4.213H32.25v4.214h4.306v19.45c1.356-.059 2.759-.059 4.162-.059V18.744Zm11.063 5.366h5.689v4.223h-5.69v9.57h-4.084V14.52h11.61v4.214H51.77v5.384l.01-.01Zm19.64 10.38c-1.773-.113-3.579-.228-5.368-.265V14.52h-4.152v23.684c3.786.078 7.506.312 11.217.556v-4.166c-.562-.033-1.128-.069-1.697-.105Zm5.204 4.553c1.327.078 2.73.166 4.076.322V14.521h-4.076v24.522Zm17.023-11.685 5.277-12.837h-4.547l-2.92 7.091-2.72-7.091h-4.461l4.825 12.68-5.343 12.36c.635.09 1.263.157 1.891.223.854.09 1.708.18 2.578.332l3.037-7.17 2.989 7.804.525.093c1.382.243 2.764.486 4.146.668l-5.276-14.153Z" clip-rule="evenodd"/></svg>