<svg width="1em" height="1em" viewBox="0 0 24 24" fill="none" xmlns="http://www.w3.org/2000/svg" class="product-ui-view_icon__6BxqD"><g clip-path="url(#avatar-teams_svg__a)"><path d="M0 6a6 6 0 0 1 6-6h12a6 6 0 0 1 6 6v12a6 6 0 0 1-6 6H6a6 6 0 0 1-6-6V6Z" fill="#E7E0B1"/><mask id="avatar-teams_svg__b" style="mask-type:alpha" maskUnits="userSpaceOnUse" x="-1" y="0" width="25" height="24"><path d="M0 6a6 6 0 0 1 6-6h12a6 6 0 0 1 6 6v12a6 6 0 0 1-6 6H6a6 6 0 0 1-6-6V6Z" fill="#F6EDC6"/></mask><g mask="url(#avatar-teams_svg__b)" fill="#F6EDC6"><path d="M32.92 10.56c-.186-.37-3.705 1.566-6.266 3.009L4.134 26.258c-1.412.795-4.28 2.293-4.29 2.938-.01.646 2.311-.472 3.461-1.12 1.15-.647 2.538-1.666 4.073-2.46 1.534-.793 3.815-1.06 7.298-3.069 3.482-2.01 4.322-3.265 6.167-4.4 1.846-1.134 5.9-3.234 8.366-4.737 2.938-1.792 3.874-2.533 3.712-2.85Z"/><path d="M32.007 8.748c.631 1.252-2.807 3.349-5.368 4.792L4.12 26.227c-1.411.795-4.076 2.698-5.188 1.156-1.113-1.542.88-3.308 2.03-3.956 1.15-.648 2.946-.857 4.36-1.893 1.41-1.036 1.935-4.785 5.5-6.633 3.563-1.849 5.751-.43 7.76-1.24 2.01-.81 5.745-3.544 8.407-4.657 3.173-1.325 4.477-1.337 5.019-.257ZM-11.301 11.743c.194.504 5.02-1.553 8.537-3.095L28.158-4.91c1.938-.85 5.86-2.422 5.957-3.26.097-.838-3.065.312-4.644 1.004-1.578.692-3.515 1.836-5.613 2.668-2.097.83-5.097.88-9.885 3.037C9.185.697 7.93 2.22 5.384 3.455c-2.546 1.234-8.09 3.434-11.49 5.067-4.051 1.946-5.365 2.787-5.195 3.22Z"/><path d="M-10.35 14.217c-.657-1.71 4.085-3.987 7.601-5.529L28.174-4.87c1.937-.85 5.647-2.975 6.893-.826 1.245 2.149-1.576 4.185-3.154 4.877-1.58.692-3.941.73-5.913 1.892-1.968 1.164-3.139 5.968-8.012 7.906-4.873 1.938-7.532-.192-10.248.6-2.717.791-7.928 3.857-11.533 4.957-4.296 1.31-5.992 1.155-6.557-.319Z"/></g><path d="M7.5 8.44V6.726h8.994V8.44H13.01V18h-2.025V8.44H7.5Z" fill="#BD8800"/></g><defs><clipPath id="avatar-teams_svg__a"><path fill="currentColor" d="M0 0h24v24H0z"/></clipPath></defs></svg>