<svg width="20" height="20" viewBox="0 0 24 24" fill="none" xmlns="http://www.w3.org/2000/svg" color="var(--product-ui-meta-blue)"><path fill-rule="evenodd" clip-rule="evenodd" d="M5.246 4.73A2.25 2.25 0 0 1 7.435 3h9.13a2.25 2.25 0 0 1 2.189 1.73l2.226 9.346c.013.057.02.116.02.174v4.5A2.25 2.25 0 0 1 18.75 21H5.25A2.25 2.25 0 0 1 3 18.75v-4.5a.75.75 0 0 1 .02-.174L5.246 4.73Zm2.189-.23a.75.75 0 0 0-.73.577L4.5 14.338v4.412c0 .415.336.75.75.75h13.5a.75.75 0 0 0 .75-.75v-4.412l-2.205-9.261a.75.75 0 0 0-.73-.577h-9.13ZM6.25 15a.75.75 0 0 1 .75-.75h2.5a.75.75 0 0 1 .75.75 1.75 1.75 0 1 0 3.5 0 .75.75 0 0 1 .75-.75H17a.75.75 0 0 1 0 1.5h-1.837a3.251 3.251 0 0 1-6.326 0H7a.75.75 0 0 1-.75-.75Z" fill="currentColor"/></svg>