<svg width="20" height="20" viewBox="0 0 24 24" fill="none" xmlns="http://www.w3.org/2000/svg" color="var(--display-onlight-color-green)"><path fill-rule="evenodd" clip-rule="evenodd" d="M6 8a.75.75 0 0 1 .75-.75h10.5a.75.75 0 0 1 0 1.5H6.75A.75.75 0 0 1 6 8Z" fill="currentColor"/><path fill-rule="evenodd" clip-rule="evenodd" d="M3 6a3 3 0 0 1 3-3h12a3 3 0 0 1 3 3v12a3 3 0 0 1-3 3H6a3 3 0 0 1-3-3V6Zm3-1.5A1.5 1.5 0 0 0 4.5 6v12A1.5 1.5 0 0 0 6 19.5h12a1.5 1.5 0 0 0 1.5-1.5V6A1.5 1.5 0 0 0 18 4.5H6Z" fill="currentColor"/><path d="M7.473 17v-.892L9.758 13.9c.213-.213.391-.403.534-.57.143-.165.25-.327.323-.485.072-.158.108-.326.108-.505a.938.938 0 0 0-.14-.52.903.903 0 0 0-.38-.34 1.192 1.192 0 0 0-.547-.121c-.211 0-.396.044-.556.131a.919.919 0 0 0-.368.37 1.174 1.174 0 0 0-.128.566H7.428c0-.417.095-.78.285-1.09.191-.308.456-.547.792-.715.34-.17.727-.256 1.164-.256.447 0 .84.082 1.176.246.336.164.598.39.783.678.187.287.281.615.281.984 0 .245-.048.487-.144.726-.094.236-.26.5-.498.789-.237.29-.57.638-1 1.045L9.18 15.929v.045h2.825V17H7.473ZM16.024 10.454V17h-1.236v-5.353h-.039l-1.524.971v-1.122l1.627-1.042h1.172Z" fill="currentColor"/></svg>