<svg xmlns="http://www.w3.org/2000/svg" fill="currentColor" viewBox="0 0 151 57" aria-label="Microsoft"><path d="m53.302 30.452-.893 2.53h-.075a17.98 17.98 0 0 0-.868-2.48L46.678 18.47H41.99v19.175h3.1V25.813c0-.744 0-1.588-.024-2.63-.025-.52-.074-.918-.1-1.215h.075a11.6 11.6 0 0 0 .447 1.637l5.755 13.99h2.183l5.705-14.114c.124-.322.248-.967.372-1.513h.075a178.288 178.288 0 0 0-.15 3.448V37.57h3.3V18.42h-4.515l-4.911 12.03Zm12.552-6.624h3.225v13.743h-3.225V23.828Zm1.637-5.804c-.546 0-.992.198-1.364.545a1.76 1.76 0 0 0-.57 1.34c0 .52.197.967.57 1.315.372.347.818.52 1.364.52.546 0 1.017-.198 1.364-.52.372-.348.57-.794.57-1.315 0-.521-.198-.967-.57-1.34-.322-.347-.794-.545-1.364-.545Zm13.023 5.68a8.998 8.998 0 0 0-1.81-.198c-1.464 0-2.804.322-3.92.967s-2.01 1.538-2.58 2.655c-.595 1.14-.893 2.455-.893 3.968 0 1.315.298 2.481.868 3.548.57 1.042 1.365 1.885 2.431 2.456 1.017.57 2.208.868 3.548.868 1.538 0 2.852-.323 3.894-.918l.025-.025v-2.977l-.124.1a5.544 5.544 0 0 1-1.563.818c-.57.199-1.091.298-1.538.298-1.29 0-2.307-.372-3.026-1.19-.744-.794-1.116-1.886-1.116-3.25 0-1.414.372-2.53 1.14-3.35.77-.818 1.787-1.24 3.027-1.24 1.042 0 2.109.348 3.076 1.042l.124.1v-3.15l-.025-.026c-.422-.173-.893-.372-1.538-.496Zm10.642-.099c-.794 0-1.538.248-2.183.77-.546.446-.918 1.09-1.24 1.86h-.025v-2.407h-3.225v13.743h3.225v-7.02c0-1.19.248-2.183.794-2.902.546-.745 1.24-1.117 2.084-1.117.297 0 .595.075.967.124.347.1.595.199.769.323l.124.099v-3.225l-.074-.025c-.224-.148-.67-.223-1.216-.223Zm8.781-.074c-2.257 0-4.068.67-5.333 1.984-1.29 1.315-1.91 3.126-1.91 5.408 0 2.133.645 3.87 1.885 5.135 1.24 1.24 2.927 1.885 5.036 1.885 2.208 0 3.969-.67 5.234-2.01 1.29-1.339 1.91-3.125 1.91-5.333 0-2.183-.595-3.919-1.811-5.184-1.166-1.265-2.877-1.885-5.01-1.885Zm2.58 10.567c-.595.77-1.538 1.141-2.704 1.141-1.166 0-2.108-.372-2.778-1.19-.67-.77-.992-1.886-.992-3.3 0-1.463.347-2.58.992-3.373.67-.794 1.588-1.191 2.754-1.191 1.141 0 2.034.372 2.679 1.141s.992 1.885.992 3.349c-.05 1.488-.323 2.654-.943 3.423Zm11.436-4.564c-1.017-.422-1.662-.744-1.96-1.017-.248-.248-.372-.596-.372-1.042 0-.372.149-.744.521-.992s.794-.373 1.414-.373c.546 0 1.116.1 1.662.249.546.148 1.042.372 1.439.67l.124.099V24.1l-.075-.025a8.95 8.95 0 0 0-1.463-.421 9.943 9.943 0 0 0-1.588-.15c-1.538 0-2.803.373-3.795 1.192-.992.768-1.464 1.81-1.464 3.026 0 .645.1 1.215.323 1.687.223.471.546.918.992 1.29.447.347 1.092.744 1.985 1.116.744.322 1.314.57 1.662.769.347.198.57.422.744.595.124.199.198.447.198.77 0 .917-.694 1.364-2.108 1.364-.546 0-1.117-.1-1.786-.323a6.898 6.898 0 0 1-1.811-.918l-.124-.099v3.15l.074.025c.472.224 1.042.372 1.737.546.694.124 1.314.223 1.86.223 1.662 0 3.026-.372 3.994-1.19.992-.794 1.513-1.811 1.513-3.126 0-.918-.248-1.736-.794-2.357a10.048 10.048 0 0 0-2.902-1.711Zm12.205-6.003c-2.258 0-4.069.67-5.334 1.984-1.265 1.315-1.91 3.126-1.91 5.408 0 2.133.645 3.87 1.885 5.135 1.241 1.24 2.928 1.885 5.036 1.885 2.208 0 3.969-.67 5.234-2.01 1.29-1.339 1.91-3.125 1.91-5.333 0-2.183-.595-3.919-1.811-5.184-1.165-1.265-2.877-1.885-5.01-1.885Zm2.555 10.567c-.596.77-1.538 1.141-2.704 1.141-1.191 0-2.109-.372-2.779-1.19-.669-.77-.992-1.886-.992-3.3 0-1.463.348-2.58.992-3.373.67-.794 1.588-1.191 2.754-1.191 1.116 0 2.034.372 2.679 1.141s.992 1.885.992 3.349c0 1.488-.322 2.654-.942 3.423Zm21.507-7.615v-2.655h-3.25V19.76l-.099.025-3.076.918-.075.025v3.1h-4.862v-1.736c0-.794.199-1.414.546-1.811.347-.397.868-.595 1.513-.595.447 0 .918.099 1.439.322l.124.075V17.28l-.074-.025c-.447-.15-1.042-.248-1.811-.248a5.81 5.81 0 0 0-2.58.595 4.298 4.298 0 0 0-1.761 1.761c-.422.744-.645 1.588-.645 2.555v1.91h-2.258v2.63h2.258V37.57h3.249V26.483h4.862v7.07c0 2.902 1.365 4.365 4.093 4.365.447 0 .918-.074 1.365-.149.471-.099.818-.223 1.017-.322l.025-.025v-2.654l-.124.1a2.103 2.103 0 0 1-.67.297 2.288 2.288 0 0 1-.645.099c-.645 0-1.092-.149-1.414-.52-.298-.348-.447-.919-.447-1.762v-6.5h3.3ZM.415 12.02H15.62v15.207H.415V12.021Zm16.794 0h15.206v15.207H17.21V12.021ZM.415 28.814H15.62v15.207H.415V28.814Zm16.794 0h15.206v15.207H17.21V28.814Z"/></svg>