<svg viewBox="0 0 16 16" fill="currentColor" xmlns="http://www.w3.org/2000/svg" aria-hidden="true"><path fill-rule="evenodd" clip-rule="evenodd" d="M6.012 3.14a5.249 5.249 0 0 0-3.208 4.11h2.46c.058-1.424.275-2.723.61-3.73.043-.13.09-.256.138-.38ZM8 1.25a6.75 6.75 0 1 0 0 13.5 6.75 6.75 0 0 0 0-13.5Zm0 1.505a.647.647 0 0 0-.19.18c-.165.21-.346.56-.513 1.06-.277.832-.475 1.965-.53 3.255h2.467c-.056-1.29-.254-2.423-.531-3.256-.167-.5-.348-.849-.514-1.059A.647.647 0 0 0 8 2.755Zm2.735 4.495c-.057-1.424-.274-2.723-.61-3.73a7.557 7.557 0 0 0-.137-.38 5.25 5.25 0 0 1 3.208 4.11h-2.46Zm-1.501 1.5H6.766c.056 1.289.254 2.422.531 3.255.167.5.348.849.514 1.059.096.122.16.166.189.18a.647.647 0 0 0 .19-.18c.165-.21.346-.56.513-1.06.277-.832.475-1.965.53-3.254Zm-3.222 4.108a7.476 7.476 0 0 1-.138-.379c-.335-1.006-.552-2.306-.61-3.73h-2.46a5.25 5.25 0 0 0 3.208 4.11Zm3.976 0c.049-.123.095-.25.138-.379.335-1.006.552-2.306.61-3.73h2.46a5.25 5.25 0 0 1-3.208 4.11Z"/></svg>