<svg width="1em" height="1em" viewBox="0 0 24 24" fill="none" xmlns="http://www.w3.org/2000/svg" class="product-ui-button_icon__DhFlD"><path fill-rule="evenodd" clip-rule="evenodd" d="M15.636 4.75a1.25 1.25 0 1 0 0 2.5 1.25 1.25 0 0 0 0-2.5Zm-2.646.5a2.751 2.751 0 0 1 5.293 0H21a.75.75 0 0 1 0 1.5h-2.717a2.751 2.751 0 0 1-5.293 0H3a.75.75 0 1 1 0-1.5h9.99Zm-4.717 5.5a1.25 1.25 0 1 0 0 2.5 1.25 1.25 0 0 0 0-2.5Zm-2.647.5a2.751 2.751 0 0 1 5.293 0H21a.75.75 0 0 1 0 1.5H10.92a2.751 2.751 0 0 1-5.294 0H3a.75.75 0 1 1 0-1.5h2.626Zm10.01 5.5a1.25 1.25 0 1 0 0 2.5 1.25 1.25 0 0 0 0-2.5Zm-2.646.5a2.751 2.751 0 0 1 5.293 0H21a.75.75 0 0 1 0 1.5h-2.717a2.751 2.751 0 0 1-5.293 0H3a.75.75 0 1 1 0-1.5h9.99Z" fill="currentColor"/></svg>